<svg width="24" height="24" viewBox="0 0 24 24" fill="none" xmlns="http://www.w3.org/2000/svg">
<path d="M8.15723 12.7346C8.04785 12.7346 7.95671 12.6982 7.88379 12.6252C7.81543 12.5523 7.78125 12.4635 7.78125 12.3586C7.78125 12.2584 7.81543 12.1718 7.88379 12.0989C7.95671 12.026 8.04785 11.9895 8.15723 11.9895L11.5 11.9895L11.5 7.56665C11.5 7.46183 11.5365 7.37524 11.6094 7.30688C11.6823 7.23397 11.7689 7.19751 11.8691 7.19751C11.9785 7.19751 12.0674 7.23397 12.1357 7.30688C12.2087 7.37524 12.2451 7.46183 12.2451 7.56665L12.2451 12.3586C12.2451 12.4635 12.2087 12.5523 12.1357 12.6252C12.0674 12.6982 11.9785 12.7346 11.8691 12.7346L8.15723 12.7346ZM11.876 18.9211C10.9372 18.9211 10.0531 18.7411 9.22363 18.3811C8.39876 18.0256 7.6696 17.5334 7.03613 16.9045C6.40723 16.2711 5.91276 15.5419 5.55273 14.717C5.19727 13.8876 5.01953 13.0035 5.01953 12.0647C5.01953 11.1259 5.19727 10.2441 5.55274 9.41919C5.91276 8.58976 6.40723 7.86059 7.03613 7.23169C7.66504 6.59822 8.39193 6.10376 9.2168 5.74829C10.0462 5.38826 10.9303 5.20825 11.8691 5.20825C12.8079 5.20825 13.6921 5.38827 14.5215 5.74829C15.3509 6.10376 16.0801 6.59823 16.709 7.23169C17.3379 7.8606 17.8324 8.58976 18.1924 9.41919C18.5524 10.2441 18.7324 11.1259 18.7324 12.0647C18.7324 13.0035 18.5524 13.8876 18.1924 14.717C17.8324 15.5419 17.3379 16.2711 16.709 16.9045C16.0801 17.5334 15.3509 18.0256 14.5215 18.3811C13.6966 18.7411 12.8148 18.9211 11.876 18.9211ZM11.876 18.0393C12.7008 18.0393 13.4733 17.8844 14.1934 17.5745C14.918 17.2646 15.5537 16.8362 16.1006 16.2893C16.652 15.7424 17.0804 15.109 17.3857 14.3889C17.6956 13.6643 17.8506 12.8896 17.8506 12.0647C17.8506 11.2398 17.6956 10.4674 17.3857 9.74732C17.0758 9.02271 16.6475 8.38696 16.1006 7.84009C15.5537 7.28866 14.918 6.86027 14.1934 6.55493C13.4733 6.24504 12.6986 6.09009 11.8691 6.09009C11.0443 6.09009 10.2695 6.24504 9.54492 6.55493C8.82487 6.86027 8.19141 7.28865 7.64453 7.84009C7.10221 8.38696 6.67611 9.0227 6.36621 9.74731C6.06087 10.4674 5.9082 11.2398 5.9082 12.0647C5.9082 12.8896 6.06087 13.6643 6.36621 14.3889C6.67611 15.109 7.10449 15.7424 7.65137 16.2893C8.19824 16.8362 8.8317 17.2646 9.55176 17.5745C10.2718 17.8844 11.0465 18.0393 11.876 18.0393Z" fill="white"/>
</svg>
