<svg width="193" height="193" viewBox="0 0 193 193" fill="none" xmlns="http://www.w3.org/2000/svg">
<rect x="0.5" y="0.5" width="192" height="192" rx="32" fill="white" fill-opacity="0.08"/>
<path d="M96.5 143.672C70.7656 143.672 49.4844 122.391 49.4844 96.6562C49.4844 70.875 70.7188 49.6406 96.4531 49.6406C122.234 49.6406 143.516 70.875 143.516 96.6562C143.516 122.391 122.234 143.672 96.5 143.672ZM71 101.25H96.4531C97.9531 101.25 99.0781 100.125 99.0781 98.6719V65.8125C99.0781 64.3594 97.9531 63.2812 96.4531 63.2812C95.0469 63.2812 93.9219 64.3594 93.9219 65.8125V96.1406H71C69.5469 96.1406 68.4688 97.2656 68.4688 98.6719C68.4688 100.125 69.5469 101.25 71 101.25Z" fill="white"/>
</svg>
