<svg width="24" height="24" viewBox="0 0 24 24" fill="none" xmlns="http://www.w3.org/2000/svg">
<path d="M7.40592 18.6066C7.18034 18.4357 7.12565 18.1554 7.26921 17.7384L8.71843 13.3634L4.97233 10.6632C4.61686 10.4103 4.48698 10.1505 4.57585 9.87707C4.66472 9.61047 4.91764 9.47375 5.36198 9.47375L9.9694 9.5011L11.3776 5.10559C11.5143 4.68176 11.7126 4.48352 11.9997 4.48352C12.28 4.48352 12.485 4.68176 12.6217 5.10559L14.0299 9.5011L18.6374 9.47376C19.0749 9.47376 19.3278 9.61048 19.4167 9.87708C19.5055 10.1505 19.3825 10.4103 19.027 10.6632L15.2741 13.3634L16.7301 17.7384C16.8737 18.1554 16.819 18.4357 16.5866 18.6066C16.361 18.7775 16.0739 18.7296 15.7253 18.4698L11.9997 15.7423L8.27409 18.4698C7.91862 18.7296 7.63835 18.7775 7.40592 18.6066Z" fill="white"/>
</svg>
